PathFileType	4	(X/Y/Z)	/Users/itak/Documents/Research/Walk-IL/dataset/trc/00576_00009.trc
DataRate	CameraRate	NumFrames	NumMarkers	Units	OrigDataRate	OrigDataStartFrame	OrigNumFrames
100.000000	100.000000	4	53	mm	100.000000	197	527
Frame#	Time	RPSI			LPSI			L3			STRN			T10			C7			CLAV			RBAK			LBAK			LSHO			LUPA			LAEL			LAOL			LWTS			LWPS			LFRA			LIFD			LHPS			LHTS			RSHO			RUPA			RAEL			RAOL			RWTS			RWPS			RFRA			RIFD			RHTS			RHPS			RBHD			LFHD			RFHD			LBHD			LHIP			RHIP			RASI			LASI			LKNE			LTHI			LANK			LTIP			LTOE			LMT1			LMT5			LHEE			RKNE			RTHI			RANK			RTIP			RTOE			RMT1			RMT5			RHEE			
		X1	Y1	Z1	X2	Y2	Z2	X3	Y3	Z3	X4	Y4	Z4	X5	Y5	Z5	X6	Y6	Z6	X7	Y7	Z7	X8	Y8	Z8	X9	Y9	Z9	X10	Y10	Z10	X11	Y11	Z11	X12	Y12	Z12	X13	Y13	Z13	X14	Y14	Z14	X15	Y15	Z15	X16	Y16	Z16	X17	Y17	Z17	X18	Y18	Z18	X19	Y19	Z19	X20	Y20	Z20	X21	Y21	Z21	X22	Y22	Z22	X23	Y23	Z23	X24	Y24	Z24	X25	Y25	Z25	X26	Y26	Z26	X27	Y27	Z27	X28	Y28	Z28	X29	Y29	Z29	X30	Y30	Z30	X31	Y31	Z31	X32	Y32	Z32	X33	Y33	Z33	X34	Y34	Z34	X35	Y35	Z35	X36	Y36	Z36	X37	Y37	Z37	X38	Y38	Z38	X39	Y39	Z39	X40	Y40	Z40	X41	Y41	Z41	X42	Y42	Z42	X43	Y43	Z43	X44	Y44	Z44	X45	Y45	Z45	X46	Y46	Z46	X47	Y47	Z47	X48	Y48	Z48	X49	Y49	Z49	X50	Y50	Z50	X51	Y51	Z51	X52	Y52	Z52	X53	Y53	Z53	

198	1.97	-559.19580078125	990.89111328125	89.24983215332031	-521.372802734375	997.7791748046875	-39.25503158569336	-533.8079223632812	1093.993408203125	19.3908634185791	-293.4902954101562	1275.359741210938	70.55423736572266	-534.5696411132812	1220.078247070312	15.97728538513184	-479.3433227539062	1492.489501953125	40.30292510986328	-309.5763854980469	1387.25341796875	67.76100921630859	-569.9637451171875	1368.8671875	105.7555541992188	-493.9092712402344	1441.66748046875	-58.16476821899414	-379.5243225097656	1464.100463867188	-115.6468124389648	-364.7099304199219	1340.531127929688	-196.12451171875	-306.8645324707031	1129.202026367188	-215.1526184082031	-402.3825378417969	1098.46826171875	-193.8954620361328	-160.206298828125	942.3172607421875	-110.4688339233398	-168.2804718017578	901.5234375	-186.9613800048828	-257.8549194335938	1057.398803710938	-205.1453399658203	-107.1707763671875	784.3084716796875	-85.67806243896484	-142.5743408203125	849.69873046875	-167.0513458251953	-111.8283843994141	876.4026489257812	-112.7357864379883	-457.9251098632812	1452.024780273438	203.6935424804688	-492.0022277832031	1386.8369140625	264.2264404296875	-512.178955078125	1101.9169921875	316.6737976074219	-557.5289306640625	1081.960083007812	277.884033203125	-365.1892700195312	886.7312622070312	323.0854797363281	-426.0351867675781	864.9644165039062	374.685302734375	-502.4078674316406	1046.559936523438	328.3139343261719	-347.6376647949219	716.0269165039062	332.9429016113281	-336.5684509277344	798.586669921875	349.959716796875	-404.2337951660156	792.3109130859375	380.8872680664062	-388.3795776367188	1671.07470703125	138.2562561035156	-238.1232757568359	1684.2451171875	-4.726651191711426	-248.7157897949219	1684.385375976562	139.0427703857422	-369.1475524902344	1668.732177734375	-26.55803298950195	-367.2235717773438	918.7637939453125	-134.4283905029297	-462.959228515625	929.0853881835938	240.3782043457031	-368.3041076660156	962.6578979492188	199.5636138916016	-300.3376159667969	945.4884033203125	-66.81951904296875	-406.4177551269531	479.0545654296875	-39.43132019042969	-375.9920349121094	641.5435791015625	-82.53836822509766	-586.3687744140625	40.30719757080078	-50.18124771118164	-515.5582885742188	246.1683654785156	-56.3441047668457	-420.7776489257812	36.61796951293945	92.83983612060547	-501.948486328125	41.50317001342773	92.19261932373047	-471.0636291503906	36.67153549194336	-11.780517578125	-671.6925659179688	47.4477653503418	-31.4209041595459	-281.0997009277344	525.6203002929688	272.0101318359375	-390.0574951171875	792.9415893554688	268.16552734375	-244.7779693603516	47.43630599975586	313.8311767578125	-243.3147888183594	386.8210754394531	284.73193359375	-36.39015579223633	112.2311019897461	313.6170349121094	-85.49933624267578	89.73459625244141	260.8542175292969	-126.1243209838867	79.60762023925781	356.1113586425781	-284.1832885742188	22.5765495300293	251.4889068603516	
199	1.98	-551.2324829101562	989.8300170898438	93.47537994384766	-514.7512817382812	996.8232421875	-35.38274002075195	-526.6963500976562	1092.933227539062	23.33513450622559	-285.9877624511719	1274.399536132812	71.89376068115234	-527.6219482421875	1219.078735351562	19.85333251953125	-472.12841796875	1491.533935546875	43.38337326049805	-301.9848327636719	1386.300170898438	69.17555999755859	-562.0838623046875	1367.9208984375	109.869270324707	-487.6704406738281	1440.63623046875	-54.8702392578125	-373.8600463867188	1463.000732421875	-113.6166000366211	-360.109375	1339.3154296875	-194.0599670410156	-302.6086730957031	1127.9072265625	-213.4513092041016	-397.979736328125	1097.307983398438	-191.4903259277344	-155.2411651611328	941.3146362304688	-109.2671813964844	-163.7565155029297	900.3599853515625	-185.6425628662109	-253.5324401855469	1056.149536132812	-203.6380157470703	-102.1126098632812	783.3554077148438	-84.39697265625	-137.8818969726562	848.5762939453125	-165.7772979736328	-106.8535995483398	875.3843994140625	-111.6291427612305	-449.0142211914062	1451.137817382812	206.6067504882812	-482.6134033203125	1386.049926757812	267.4916076660156	-503.0006103515625	1101.142456054688	320.2968444824219	-548.7113037109375	1081.366455078125	281.8448486328125	-357.1040344238281	885.2698364257812	325.5588073730469	-417.5900268554688	863.913818359375	377.8315124511719	-493.3663635253906	1045.845947265625	331.8186645507812	-340.2871398925781	714.5239868164062	335.4417114257812	-328.7091979980469	797.0379638671875	352.3199157714844	-396.1029052734375	791.1293334960938	383.8300170898438	-380.4618530273438	1670.110717773438	140.2815399169922	-231.3045654296875	1683.376953125	-3.824732303619385	-240.8013153076172	1683.540649414062	140.0167846679688	-362.4597778320312	1667.721557617188	-24.66128349304199	-361.626708984375	918.0260620117188	-132.2724761962891	-453.498779296875	928.092041015625	243.7264556884766	-359.3925476074219	961.5639038085938	201.8327331542969	-293.92431640625	944.5819091796875	-65.26126861572266	-402.9705505371094	478.5028991699219	-38.51238250732422	-371.4876403808594	640.8914184570312	-81.34233093261719	-586.3189697265625	41.04264450073242	-50.01474761962891	-514.0493774414062	246.5260009765625	-55.79584503173828	-420.633544921875	36.58735275268555	92.75214385986328	-501.6648254394531	41.62152862548828	92.10931396484375	-471.0554504394531	36.67680358886719	-11.77695560455322	-671.5934448242188	48.72686767578125	-31.16823196411133	-271.3212890625	524.5260620117188	273.3561401367188	-380.5609436035156	791.8106689453125	270.8271179199219	-219.5898132324219	47.70272827148438	316.0603637695312	-229.8541259765625	387.0995178222656	285.6105651855469	-13.36896800994873	118.8406982421875	310.5801696777344	-63.19290542602539	95.01030731201172	259.1104736328125	-100.8760452270508	83.25449371337891	355.2587890625	-259.9429321289062	21.84755516052246	254.9498443603516	
200	1.99	-543.1637573242188	988.6891479492188	97.73571014404297	-508.0418090820312	995.8126220703125	-31.43880653381348	-519.5020751953125	1091.807373046875	27.33165168762207	-278.4573669433594	1273.387939453125	73.25517272949219	-520.588134765625	1218.012451171875	23.78232955932617	-464.86767578125	1490.519165039062	46.50561904907227	-294.3561706542969	1385.29443359375	70.60316467285156	-554.118896484375	1366.901977539062	114.0139923095703	-481.3921508789062	1439.542602539062	-51.52518081665039	-368.1888122558594	1461.848876953125	-111.5389633178711	-355.5069885253906	1338.0263671875	-191.9507598876953	-298.4105834960938	1126.51708984375	-211.7078094482422	-393.6356201171875	1096.1005859375	-189.0017242431641	-150.4485473632812	940.0245971679688	-108.1896743774414	-159.4892272949219	898.96240234375	-184.4585571289062	-249.3277893066406	1054.755249023438	-202.1406097412109	-97.37249755859375	782.053466796875	-83.33608245849609	-133.4783782958984	847.1747436523438	-164.6878662109375	-102.1053619384766	874.0505981445312	-110.7252807617188	-440.0155334472656	1450.174560546875	209.5478820800781	-473.1307067871094	1385.192260742188	270.7831115722656	-493.7395324707031	1100.307495117188	323.976806640625	-539.7896118164062	1080.697021484375	285.8186645507812	-348.9552001953125	883.7432861328125	328.0955505371094	-409.0462036132812	862.79443359375	381.0343933105469	-484.234619140625	1045.06298828125	335.3555297851562	-332.8602294921875	712.9615478515625	337.999755859375	-320.7949523925781	795.4276733398438	354.7427673339844	-387.9008483886719	789.87890625	386.8218078613281	-372.5110778808594	1669.097900390625	142.3236541748047	-224.4754638671875	1682.46630859375	-2.92363715171814	-232.8566284179688	1682.651977539062	140.9857330322266	-355.7676391601562	1666.642944335938	-22.73806381225586	-355.9158325195312	917.243408203125	-130.0450286865234	-443.9526672363281	927.0416870117188	247.1078643798828	-350.4111022949219	960.43408203125	204.1383056640625	-287.4395446777344	943.5829467773438	-63.61742401123047	-399.2346496582031	477.9012756347656	-37.50366592407227	-366.772705078125	640.2020263671875	-80.04525756835938	-586.2506103515625	41.84131240844727	-49.86787033081055	-512.3795776367188	246.8666534423828	-55.19998550415039	-420.4822082519531	36.5631103515625	92.68399810791016	-501.3657836914062	41.74921798706055	92.01615905761719	-471.0322265625	36.68859481811523	-11.78358268737793	-671.4520263671875	50.11032104492188	-30.93692779541016	-261.3487243652344	523.40966796875	274.4935302734375	-370.8765258789062	790.6256713867188	273.5030822753906	-195.840087890625	48.12785339355469	317.6440124511719	-216.6348114013672	387.2827758789062	286.1382446289062	8.056719779968262	125.0337905883789	306.4729614257812	-42.55661010742188	99.90088653564453	256.4383850097656	-77.04222106933594	86.77826690673828	353.4886779785156	-237.2702026367188	21.29598045349121	257.8253479003906	
201	2	-534.99169921875	987.4815063476562	102.0268096923828	-501.2283935546875	994.7582397460938	-27.42867851257324	-512.2197265625	1090.626220703125	31.37300300598145	-270.8902282714844	1272.337158203125	74.64669799804688	-513.4688720703125	1216.8876953125	27.76084136962891	-457.5537719726562	1489.453857421875	49.66458511352539	-286.7048645019531	1384.24267578125	72.0556640625	-546.0651245117188	1365.822143554688	118.1799392700195	-475.066650390625	1438.39453125	-48.13306427001953	-362.5	1460.650634765625	-109.4073486328125	-350.8841552734375	1336.67724609375	-189.7950897216797	-294.2564086914062	1125.044311523438	-209.9189910888672	-389.3439025878906	1094.856567382812	-186.416748046875	-145.8182373046875	938.4542236328125	-107.2360000610352	-155.4741821289062	897.335693359375	-183.4077606201172	-245.2366027832031	1053.224243164062	-200.6474761962891	-92.9354248046875	780.406005859375	-82.50335693359375	-129.36767578125	845.4986572265625	-163.7782897949219	-97.57935333251953	872.400146484375	-110.0284423828125	-430.9373779296875	1449.147338867188	212.5112915039062	-463.5572204589844	1384.272216796875	274.1011352539062	-484.3856506347656	1099.428588867188	327.6969299316406	-530.7628784179688	1079.968139648438	289.7997436523438	-340.7276306152344	882.1617431640625	330.6952514648438	-400.3811645507812	861.6173095703125	384.295654296875	-475.0037231445312	1044.222778320312	338.9321899414062	-325.3593139648438	711.345703125	340.623779296875	-312.808837890625	793.7611083984375	357.2272644042969	-379.6122131347656	788.5689697265625	389.8674011230469	-364.5274658203125	1668.04833984375	144.3856506347656	-217.6322326660156	1681.518798828125	-2.015337944030762	-224.8812866210938	1681.726684570312	141.9535675048828	-349.0661926269531	1665.5107421875	-20.7885856628418	-350.0905151367188	916.42431640625	-127.7580871582031	-434.3158264160156	925.9362182617188	250.5046081542969	-341.3499755859375	959.2911376953125	206.4841156005859	-280.8882751464844	942.4964599609375	-61.89777755737305	-395.1990356445312	477.2528686523438	-36.40767288208008	-361.8504638671875	639.4776611328125	-78.64238739013672	-586.1658935546875	42.71427917480469	-49.73134613037109	-510.5419006347656	247.1884613037109	-54.56039810180664	-420.3281555175781	36.53840637207031	92.63855743408203	-501.0484619140625	41.88970565795898	91.91495513916016	-470.99609375	36.70806503295898	-11.79767322540283	-671.2749633789062	51.61870193481445	-30.71114730834961	-251.1548461914062	522.3070678710938	275.3670959472656	-361.0119018554688	789.3860473632812	276.17431640625	-173.7205657958984	48.57877349853516	318.5914611816406	-203.6432189941406	387.346923828125	286.3275756835938	27.78743743896484	130.5514526367188	301.4580383300781	-23.65497589111328	104.187744140625	252.9579162597656	-54.79776763916016	89.98060607910156	350.8926696777344	-216.3370666503906	20.82789421081543	260.1168212890625	
